<?xml version="1.0" encoding="utf-8"?>
<!-- Generator: Adobe Illustrator 16.0.4, SVG Export Plug-In . SVG Version: 6.00 Build 0)  -->
<!DOCTYPE svg PUBLIC "-//W3C//DTD SVG 1.1//EN" "http://www.w3.org/Graphics/SVG/1.1/DTD/svg11.dtd">
<svg version="1.1" id="Capa_1" xmlns="http://www.w3.org/2000/svg" xmlns:xlink="http://www.w3.org/1999/xlink" x="0px" y="0px"
	 width="549.984px" height="549.984px" viewBox="0 0 549.984 549.984" enable-background="new 0 0 549.984 549.984"
	 xml:space="preserve">
<g>
	<path fill="#1E413B" d="M463.498,210.158c-5.5-3.2-11.301-6.1-17.301-8.7c0.801-6.9,1.301-13.8,1.301-20.7
		c0-72.4-45.801-137.7-113.9-162.3c-5.398-1.9-11.398,0.6-13.699,5.9c-2.301,5.3-0.1,11.4,5,14c37,18.9,60,56.5,60,98
		c0,13.5-2.5,26.8-7.301,39.3c-28-23.5-64.1-37.6-103.4-37.6c-38.8,0-74.5,13.8-102.4,36.8c-4.6-12.3-7-25.3-7-38.4
		c0-41.5,23-79.1,60-98c5.1-2.6,7.3-8.7,5-14c-2.3-5.3-8.3-7.8-13.7-5.9c-68.1,24.6-113.9,89.8-113.9,162.3c0,6.8,0.4,13.7,1.2,20.6
		c-6,2.6-11.8,5.5-17.4,8.8c-62.5,36.1-96.1,108.3-83.3,179.701c0.9,5.299,5.5,9,10.9,9c6-0.1,10.8-4.899,10.8-10.899
		c0-0.601,0-1.101-0.1-1.601c-1.7-41.1,19.3-79.399,54.9-100c11.2-6.5,23.4-10.799,36.1-13c-1.4,8.401-2.1,17.1-2.1,25.901
		c0,69.699,44.5,129.198,106.5,151.698c-8.4,10.4-18.7,19.303-30.4,26.102c-16.7,9.6-35.7,14.701-54.9,14.701
		c-21.4,0-42.1-6.104-60-17.701c-4.8-3.102-11.2-2-14.6,2.6c-3.4,4.602-2.7,11.102,1.7,14.801c31.1,26.199,70.6,40.6,111.4,40.6
		c30.1,0,59.9-8,86.1-23.1c5.5-3.199,10.9-6.699,16.1-10.5c5.201,3.801,10.6,7.4,16.1,10.5c26.201,15.1,56,23.1,86.102,23.1
		c40.799,0,80.299-14.4,111.398-40.6c4.4-3.699,5.102-10.199,1.701-14.801c-3.4-4.6-9.801-5.799-14.602-2.6
		c-17.898,11.6-38.699,17.701-60,17.701c-19.199,0-38.1-5.104-54.898-14.701c-11.801-6.799-22.201-15.799-30.701-26.4
		c61.602-22.699,105.602-82,105.602-151.299c0-8.9-0.801-17.601-2.102-26.102c13.102,2.1,25.701,6.602,37.301,13.2
		c36,20.801,57,59.5,54.9,101c-0.301,5.698,3.898,10.698,9.6,11.399c5.699,0.699,10.9-3.201,11.9-8.899
		C559.896,318.658,526.296,246.358,463.498,210.158z M346.197,220.258c-14.699,12.5-32.6,21.1-52,24.5c-12.898,2.3-25.8,2.3-38.7,0
		c-19.7-3.5-37.7-12.2-52.5-25c18.9-17,43.9-27.3,71.3-27.3C301.998,192.358,327.296,202.958,346.197,220.258z M167.396,299.359
		c0-7.4,0.8-14.701,2.2-21.701c18.4,6.301,35.1,17.4,48,32.4c4.5,5.301,8.5,10.9,11.8,16.699c3.1,5.4,5.8,11.102,8,17.102
		c6.9,18.699,8.4,38.5,5,57.5C198.896,387.757,167.396,347.257,167.396,299.359z M307.398,400.958c-3.4-19-1.801-38.601,5-57.101
		c2.199-6,4.898-11.801,8-17.103c3.398-5.799,7.299-11.397,11.799-16.698c12.701-14.802,28.9-25.699,46.9-32
		c1.398,6.899,2.1,14,2.1,21.301C381.197,346.859,350.197,387.058,307.398,400.958z"/>
</g>
</svg>
